<?xml version="1.0" encoding="UTF-8" standalone="no"?>
<svg
   width="13.529829mm"
   height="23.8125mm"
   viewBox="0 0 13.529829 23.8125"
   version="1.1"
   id="svg990"
   inkscape:version="1.2.2 (732a01da63, 2022-12-09)"
   sodipodi:docname="seizethenight-logo.svg"
   inkscape:export-filename="logo.png"
   inkscape:export-xdpi="96"
   inkscape:export-ydpi="96"
   xmlns:inkscape="http://www.inkscape.org/namespaces/inkscape"
   xmlns:sodipodi="http://sodipodi.sourceforge.net/DTD/sodipodi-0.dtd"
   xmlns="http://www.w3.org/2000/svg"
   xmlns:svg="http://www.w3.org/2000/svg"
   xmlns:rdf="http://www.w3.org/1999/02/22-rdf-syntax-ns#"
   xmlns:cc="http://creativecommons.org/ns#"
   xmlns:dc="http://purl.org/dc/elements/1.1/">
  <defs
     id="defs984" />
  <sodipodi:namedview
     id="base"
     pagecolor="#000000"
     bordercolor="#666666"
     borderopacity="1.0"
     inkscape:pageopacity="0"
     inkscape:pageshadow="2"
     inkscape:zoom="1.3771906"
     inkscape:cx="-23.235709"
     inkscape:cy="5.8089273"
     inkscape:document-units="mm"
     inkscape:current-layer="layer1"
     inkscape:document-rotation="0"
     showgrid="false"
     inkscape:showpageshadow="false"
     inkscape:pagecheckerboard="true"
     fit-margin-top="0"
     fit-margin-left="0"
     fit-margin-right="0"
     fit-margin-bottom="0"
     inkscape:window-width="1274"
     inkscape:window-height="729"
     inkscape:window-x="76"
     inkscape:window-y="0"
     inkscape:window-maximized="0"
     inkscape:deskcolor="#000000" />
  <metadata
     id="metadata987">
    <rdf:RDF>
      <cc:Work
         rdf:about="">
        <dc:format>image/svg+xml</dc:format>
        <dc:type
           rdf:resource="http://purl.org/dc/dcmitype/StillImage" />
        <dc:title />
      </cc:Work>
    </rdf:RDF>
  </metadata>
  <g
     inkscape:label="Layer 1"
     inkscape:groupmode="layer"
     id="layer1"
     transform="translate(-108.48237,-113.70964)">
    <g
       data-v-423bf9ae=""
       id="bb197256-36a6-47b4-926a-fc11a0770015"
       transform="matrix(0.27059659,0,0,0.27059659,101.71746,112.08606)"
       stroke="none"
       fill="#ffffff"
       style="fill:#009688;fill-opacity:0.898039">
      <path
         d="M 50,6 C 36,6 26,17 26,30 c 0,2.369 0.357,4.65 1,6.812 v 12.376 c -1.155,0.417 -2,1.513 -2,2.812 0,1.301 0.842,2.397 2,2.813 v 1.53 c -0.658,0.519 -1,1.57 -1,2.782 0,1.25 2,8.875 2,8.875 0,0 2,-7.625 2,-8.875 0,-1.212 -0.342,-2.263 -1,-2.781 v -1.531 c 1.158,-0.416 2,-1.512 2,-2.813 0,-1.299 -0.845,-2.395 -2,-2.812 v -7.626 c 1.719,3.07 3.524,5.03 6,7.126 v 14.5 c -1.155,0.417 -2,1.513 -2,2.812 0,1.301 0.842,2.397 2,2.813 v 1.53 c -0.658,0.519 -1,1.57 -1,2.782 0,1.25 2,8.875 2,8.875 0,0 2,-7.625 2,-8.875 0,-1.212 -0.342,-2.263 -1,-2.781 V 68.813 C 38.158,68.397 39,67.301 39,66 39,64.701 38.155,63.605 37,63.188 V 50.125 c 3.485,2.256 7.593,3.66 12,3.844 v 12.125 c -2.278,0.466 -4,2.49 -4,4.906 0,2.416 1.722,4.409 4,4.875 v 2.344 c -1.338,0.62 -2,2.523 -2,4.781 0,2 3,11 3,11 0,0 3,-9 3,-11 0,-2.257 -0.663,-4.16 -2,-4.781 V 75.875 C 53.278,75.409 55,73.416 55,71 A 5.017,5.017 0 0 0 51,66.094 V 53.969 c 4.407,-0.184 8.515,-1.588 12,-3.844 v 13.063 c -1.155,0.417 -2,1.513 -2,2.812 0,1.301 0.842,2.397 2,2.813 v 1.53 c -0.658,0.519 -1,1.57 -1,2.782 0,1.25 2,8.875 2,8.875 0,0 2,-7.625 2,-8.875 0,-1.212 -0.342,-2.263 -1,-2.781 v -1.531 c 1.158,-0.416 2,-1.512 2,-2.813 0,-1.299 -0.845,-2.395 -2,-2.812 v -14.5 c 2.407,-1.889 4.592,-4.615 6,-7.126 v 7.626 c -1.155,0.417 -2,1.513 -2,2.812 0,1.301 0.842,2.397 2,2.813 v 1.53 c -0.658,0.519 -1,1.57 -1,2.782 0,1.25 2,8.875 2,8.875 0,0 2,-7.625 2,-8.875 0,-1.212 -0.342,-2.263 -1,-2.781 V 54.813 C 74.158,54.397 75,53.301 75,52 75,50.701 74.155,49.605 73,49.188 V 36.812 A 23.85,23.85 0 0 0 74,30 C 74,16 63.347,6.2 50,6 Z m -4.406,4.469 c -0.615,1.382 -1.164,3.057 -1.625,4.937 -1.644,-0.998 -3.189,-1.8 -4.594,-2.344 1.886,-1.185 3.976,-2.09 6.219,-2.593 z m 8.812,0 c 2.243,0.503 4.333,1.408 6.219,2.593 -1.405,0.544 -2.95,1.346 -4.594,2.344 -0.46,-1.88 -1.01,-3.555 -1.625,-4.937 z M 50,12.656 c 1.402,0 2.655,1.63 3.625,4.313 A 59.033,59.033 0 0 0 50,19.687 59.033,59.033 0 0 0 46.375,16.969 c 0.97,-2.683 2.223,-4.313 3.625,-4.313 z m -6.656,5.531 c -0.256,1.416 -0.433,2.926 -0.594,4.5 -1.587,0.161 -3.105,0.4 -4.531,0.657 -1.21,-2.581 -1.46,-4.634 -0.469,-5.625 1.754,-1.155 4.068,-0.234 5.594,0.468 z M 62.25,17.719 c 0.991,0.99 0.74,3.044 -0.469,5.625 A 58.768,58.768 0 0 0 57.25,22.719 c -0.162,-1.586 -0.336,-3.107 -0.594,-4.532 1.955,-0.874 3.852,-1.43 5.594,-0.468 z m -29.188,1.625 c 0.542,1.405 1.347,2.948 2.344,4.593 -1.867,0.458 -3.53,0.984 -4.906,1.594 a 19.862,19.862 0 0 1 2.563,-6.187 z m 33.876,0 a 19.856,19.856 0 0 1 2.562,6.218 c -1.383,-0.615 -3.025,-1.163 -4.906,-1.625 0.997,-1.645 1.802,-3.188 2.344,-4.593 z m -21.313,0.094 a 35.197,35.197 0 0 1 2.625,1.75 c -0.457,0.399 -0.917,0.798 -1.375,1.218 -0.614,0.026 -1.245,0.054 -1.844,0.094 0.165,-1.086 0.364,-2.116 0.594,-3.062 z m 8.75,0 c 0.23,0.946 0.429,1.975 0.594,3.062 a 72.014,72.014 0 0 0 -1.844,-0.094 c -0.458,-0.42 -0.918,-0.82 -1.375,-1.218 a 43.428,43.428 0 0 1 2.625,-1.75 z M 42.531,25 a 72.01,72.01 0 0 0 -0.093,1.844 c -0.42,0.457 -0.82,0.918 -1.22,1.375 A 35.481,35.481 0 0 1 39.438,25.594 35.705,35.705 0 0 1 42.53,25 Z m 14.938,0 c 1.1,0.167 2.137,0.36 3.093,0.594 a 35.478,35.478 0 0 1 -1.78,2.625 c -0.4,-0.457 -0.8,-0.918 -1.22,-1.375 C 57.536,26.212 57.499,25.564 57.469,25 Z m -20.5,1.344 a 58.736,58.736 0 0 0 2.75,3.656 58.913,58.913 0 0 0 -2.75,3.625 c -2.68,-0.97 -4.313,-2.223 -4.313,-3.625 0,-1.402 1.63,-2.686 4.313,-3.656 z m 26.062,0 c 2.674,0.97 4.313,2.257 4.313,3.656 0,1.399 -1.641,2.656 -4.313,3.625 A 58.913,58.913 0 0 0 60.281,30 a 58.736,58.736 0 0 0 2.75,-3.656 z m -21.843,5.437 c 0.395,0.453 0.833,0.891 1.25,1.344 0.025,0.621 0.052,1.239 0.093,1.844 a 35.743,35.743 0 0 1 -3.094,-0.594 35.313,35.313 0 0 1 1.75,-2.594 z m 17.624,0 a 35.316,35.316 0 0 1 1.75,2.594 c -0.956,0.234 -1.993,0.427 -3.093,0.594 0.04,-0.605 0.067,-1.223 0.093,-1.844 0.417,-0.453 0.855,-0.891 1.25,-1.344 z M 69.5,34.406 a 19.853,19.853 0 0 1 -2.563,6.22 c -0.541,-1.405 -1.347,-2.95 -2.343,-4.595 1.881,-0.46 3.523,-1.01 4.906,-1.625 z m -39,0.031 c 1.376,0.61 3.039,1.136 4.906,1.594 -0.996,1.645 -1.802,3.19 -2.343,4.594 A 19.86,19.86 0 0 1 30.5,34.437 Z m 7.719,2.188 c 1.425,0.257 2.946,0.464 4.531,0.625 0.162,1.594 0.335,3.1 0.594,4.531 -2.567,1.197 -4.607,1.456 -5.594,0.469 -0.991,-0.991 -0.742,-3.043 0.469,-5.625 z m 23.562,0 c 1.207,2.578 1.459,4.635 0.469,5.625 -0.987,0.987 -3.027,0.728 -5.594,-0.469 0.26,-1.431 0.432,-2.937 0.594,-4.531 1.594,-0.162 3.1,-0.366 4.531,-0.625 z m -16.75,0.844 c 0.599,0.04 1.23,0.068 1.844,0.094 0.454,0.417 0.922,0.823 1.375,1.218 a 35.208,35.208 0 0 1 -2.625,1.782 35.417,35.417 0 0 1 -0.594,-3.094 z m 9.938,0 a 35.417,35.417 0 0 1 -0.594,3.093 35.206,35.206 0 0 1 -2.625,-1.78 c 0.453,-0.396 0.921,-0.803 1.375,-1.22 0.656,-0.039 1.25,-0.065 1.844,-0.094 z M 50,40.28 a 58.819,58.819 0 0 0 3.625,2.75 c -0.969,2.665 -2.228,4.281 -3.625,4.281 -1.402,0 -2.655,-1.631 -3.625,-4.312 A 59.046,59.046 0 0 0 50,40.281 Z m -6.031,4.313 c 0.46,1.88 1.01,3.525 1.625,4.906 a 19.806,19.806 0 0 1 -6.25,-2.594 c 1.408,-0.543 2.975,-1.312 4.625,-2.312 z m 12.062,0 c 1.65,1 3.217,1.77 4.625,2.312 a 19.806,19.806 0 0 1 -6.25,2.594 c 0.615,-1.381 1.164,-3.027 1.625,-4.906 z"
         style="text-indent:0;text-transform:none;fill:#009688;fill-opacity:0.898039"
         overflow="visible"
         color="#000000"
         id="path896" />
    </g>
  </g>
</svg>
